/* XPM */
static char *ad2g9_eefts[] = {
/* columns rows colors chars-per-pixel */
"64 64 142 2 ",
"   c #010000",
".  c #0C0303",
"X  c #130405",
"o  c #1C0506",
"O  c #1F0709",
"+  c #220607",
"@  c #2C0607",
"#  c #240608",
"$  c #2D0708",
"%  c #2F090A",
"&  c #300708",
"*  c #32080A",
"=  c #3B090B",
"-  c #430A0C",
";  c #4C0B0D",
":  c #550D0E",
">  c #5A0D0F",
",  c #550D10",
"<  c #5B0E10",
"1  c #610E0F",
"2  c #610E10",
"3  c #6D0F12",
"4  c #730F11",
"5  c #6D1012",
"6  c #731113",
"7  c #7A1113",
"8  c #841215",
"9  c #8C1316",
"0  c #8D1518",
"q  c #931417",
"w  c #991517",
"e  c #951518",
"r  c #9C1619",
"t  c #A31619",
"y  c #AA171A",
"u  c #AE181B",
"i  c #B3181B",
"p  c #BA191C",
"a  c #C21A1D",
"s  c #CB1B1E",
"d  c #CC1B1D",
"f  c #CC1B1E",
"g  c #CD1B1F",
"h  c #CC1C1E",
"j  c #CD1C1F",
"k  c #CB1B1E",
"l  c #D01B1F",
"z  c #D11B1F",
"x  c #D21C1E",
"c  c #D21C1F",
"v  c #D31C1F",
"b  c #D41D1F",
"n  c #D61C1F",
"m  c #D71C1F",
"M  c #D31C1F",
"N  c #DA1C1F",
"B  c #DB1C1F",
"V  c #DC1C1F",
"C  c #DD1C1F",
"Z  c #DA1C1F",
"A  c #E01C1F",
"S  c #E01D1F",
"D  c #CE1C20",
"F  c #D31C20",
"G  c #D41C20",
"H  c #D51C20",
"J  c #D51C21",
"K  c #D61C20",
"L  c #D71C20",
"P  c #D51C20",
"I  c #D91D20",
"U  c #DA1C20",
"Y  c #DA1D20",
"T  c #DB1D20",
"R  c #DA1D21",
"E  c #DC1D20",
"W  c #DC1D21",
"Q  c #DC1D20",
"!  c #E11D20",
"~  c #E21D20",
"^  c #E31D20",
"/  c #E31E20",
"(  c #E31E21",
")  c #E31E22",
"_  c #E41D20",
"`  c #E51D20",
"'  c #E61D20",
"]  c #E71D20",
"[  c #E71D21",
"{  c #E51E21",
"}  c #E71E20",
"|  c #E61E21",
" . c #E71E21",
".. c #E41E22",
"X. c #E61E22",
"o. c #E71E22",
"O. c #E41D20",
"+. c #E81D20",
"@. c #E91D20",
"#. c #E81E20",
"$. c #E81E21",
"%. c #E91E21",
"&. c #EA1E21",
"*. c #EB1E21",
"=. c #EA1D22",
"-. c #E91E22",
";. c #E91F22",
":. c #EA1E22",
">. c #EB1F22",
",. c #EC1E21",
"<. c #EC1F21",
"1. c #EE1E21",
"2. c #EF1E21",
"3. c #ED1F23",
"4. c #EF1E22",
"5. c #EF1F22",
"6. c #EE1F23",
"7. c #EA1E21",
"8. c #F11E21",
"9. c #F11F21",
"0. c #F11E22",
"q. c #F11F22",
"w. c #F41F22",
"e. c #F11F24",
"r. c #F21F22",
"t. c #EA2022",
"y. c #ED2023",
"u. c #F02023",
"i. c #F12023",
"p. c #F12024",
"a. c #F32024",
"s. c #F42024",
"d. c #F52024",
"f. c #F42023",
"g. c #F82023",
"h. c #FA2023",
"j. c #F92024",
"k. c #FA2024",
"l. c #FC2024",
"z. c #FE2125",
"x. c #FC2026",
"c. c #FD2124",
/* pixels */
"_ _ _ _ _ _ _ _ _ _ _ _ _ _ _ _ _ _ _ _ _ _ _ _ _ _ _ _ _ _ _ _ _ _ _ _ _ _ _ _ _ _ _ _ _ _ _ _ _ _ _ _ _ _ _ _ _ _ _ _ _ _ _ _ ",
"_ _ _ _ _ _ _ _ _ _ _ _ _ _ _ _ _ _ _ _ _ _ _ _ _ _ _ _ _ _ _ _ _ _ _ _ _ _ _ _ _ _ _ _ _ _ _ _ _ _ _ _ _ _ _ _ _ _ _ _ _ _ _ _ ",
"_ _ _ _ _ _ _ _ _ _ _ _ _ _ _ _ _ _ _ _ _ _ _ _ _ _ _ _ _ _ _ _ _ _ _ _ _ _ _ _ _ _ _ _ _ _ _ _ _ _ _ _ _ _ _ _ _ _ _ _ _ _ _ _ ",
"_ _ _ _ _ _ _ _ _ _ _ _ _ _ _ _ _ _ _ _ _ _ _ _ _ _ _ _ _ _ _ _ _ _ _ _ _ _ _ _ _ _ _ _ _ _ _ _ _ _ _ _ _ _ _ _ _ _ _ _ _ _ _ _ ",
"_ _ _ _ _ _ _ _ _ _ _ _ _ _ _ _ _ _ _ _ _ _ _ _ _ _ _ _ _ _ _ _ _ _ _ _ _ _ _ _ _ _ _ _ _ _ _ _ _ _ _ _ _ _ _ _ _ _ _ _ _ _ _ _ ",
"_ _ _ _ _ _ _ _ _ _ _ _ _ _ _ _ _ _ _ _ _ _ _ _ _ _ _ _ _ _ _ _ _ _ _ _ _ _ _ _ _ _ _ _ _ _ _ _ _ _ _ _ _ _ _ _ _ _ _ _ _ _ _ _ ",
"_ _ _ _ _ _ _ _ _ _ _ _ _ _ _ _ _ _ _ _ _ _ _ _ _ _ _ _ _ _ _ _ _ _ _ _ _ _ _ _ _ _ _ _ _ _ _ _ _ _ _ _ _ _ _ _ _ _ _ _ _ _ _ _ ",
"_ _ _ _ _ _ _ _ _ _ _ _ _ _ _ _ _ _ _ _ _ _ _ _ _ _ _ _ _ _ _ _ _ _ _ _ _ _ _ _ _ _ _ _ _ _ _ _ _ _ _ _ _ _ _ _ _ _ _ _ _ _ _ _ ",
"_ _ _ _ _ _ _ _ _ _ _ _ _ _ _ _ _ _ _ _ _ _ _ _ _ _ _ _ _ _ _ _ _ _ _ _ _ _ _ _ _ _ _ _ _ _ _ _ _ _ _ _ _ _ _ _ _ _ _ _ _ _ _ _ ",
"_ _ _ _ _ _ _ _ _ _ _ _ _ _ _ _ _ _ _ _ _ _ _ _ _ _ _ _ _ _ _ _ _ _ _ _ _ _ _ _ _ _ _ _ _ _ _ _ _ _ _ _ _ _ _ _ _ _ _ _ _ _ _ _ ",
"_ _ _ _ _ _ _ _ _ _ _ _ _ _ _ ^ _ _ _ _ _ _ _ ^ ^ A ^ ^ _ _ _ _ _ _ _ _ ^ ^ A ^ ^ _ _ _ _ _ _ _ ^ _ _ _ _ _ _ _ _ _ _ _ _ _ _ _ ",
"_ _ _ _ _ _ _ _ _ _ _ _ _ _ ^ _ ^ _ _ _ ^ ^ _ >.q.g.w.>.^ _ _ _ _ _ _ ^ >.w.g.q.>._ ^ ^ _ _ _ ^ _ ^ _ _ _ _ _ _ _ _ _ _ _ _ _ _ ",
"_ _ _ _ _ _ _ _ _ _ _ _ _ ^ _ W _ ^ _ ^ ,.q.U n q ; 8 c >._ ^ _ _ _ _ >.c 8 ; q J Z q.,.^ _ ^ _ W _ _ _ _ _ _ _ _ _ _ _ _ _ _ _ ",
"_ _ _ _ _ _ _ _ _ _ _ _ ^ ,.a X u w.V ,.w t 0 @   < +   = u >.^ ^ >.u =   + <   @ 0 t q ,.Z w.u X a ,.^ _ _ _ _ _ _ _ _ _ _ _ _ ",
"_ _ _ _ _ _ _ _ _ _ _ _ ^ ,.i   o s w.>.p < 6 6   : @     t >.^ ^ >.t     @ : . 6 6 < p >.w.s o   i ,.^ _ _ _ _ _ _ _ _ _ _ _ _ ",
"_ _ _ _ _ _ _ _ _ _ _ _ _ ^ >.:   X r >.l.,.u 6 o         O j _ _ j O         o 6 u ,.l.>.r X   : ,.^ _ _ _ _ _ _ _ _ _ _ _ _ _ ",
"_ _ _ _ _ _ _ _ _ _ _ _ _ ^ >.s.5     o > + > p _ a :       , >.>.:       : a _ p > + < o     5 s.>.^ _ _ _ _ _ _ _ _ _ _ _ _ _ ",
"_ _ _ _ _ _ _ _ _ _ _ _ ^ _ n 8 _ U 7 = X       - p k.8     . s s .     8 k.p -       X = 7 U _ 8 n _ ^ _ _ _ _ _ _ _ _ _ _ _ _ ",
"_ _ _ _ _ _ _ _ _ _ _ _ ^ >.g   o t U >.r         . z k.;     + +     ; g.z .         r t.U t o   g >.^ _ _ _ _ _ _ _ _ _ _ _ _ ",
"_ _ _ _ _ _ _ _ _ _ _ _ _ ^ ,.9                   $ _ q.q             q q._ $                   9 ,.^ _ _ _ _ _ _ _ _ _ _ _ _ _ ",
"_ _ _ _ _ _ _ _ _ _ _ _ _ _ V J J r 8 t e         X g l.<             2 l.g X         e t 8 r n J V _ _ _ _ _ _ _ _ _ _ _ _ _ _ ",
"_ _ _ _ _ _ _ _ _ _ _ _ ^ ,.a   7 U U r o           o =                 = o           o r W U 7   a ,.^ _ _ _ _ _ _ _ _ _ _ _ _ ",
"_ _ _ _ _ _ _ _ _ _ _ _ _ ^ _ -       X 5 .                                         . 5 X       ; _ ^ ^ _ _ _ _ _ _ _ _ _ _ _ _ ",
"_ _ _ _ _ _ _ _ _ _ _ _ _ ^ >.s.i q p ^ 7                                             7 ^ p q i p.>.^ _ _ _ _ _ _ _ _ _ _ _ _ _ ",
"_ _ _ _ _ _ _ _ _ _ _ _ ^ >.c ; 0 a 8 o X                                             X o 8 a q ; c >.^ _ _ _ _ _ _ _ _ _ _ _ _ ",
"_ _ _ _ _ _ _ _ _ _ _ _ ^ _ J o     # r 8                                             8 r #     o n _ ^ _ _ _ _ _ _ _ _ _ _ _ _ ",
"_ _ _ _ _ _ _ _ _ _ _ _ _ ^ >.e.c ^ p.6                                                 6 f.^ F q.>.^ _ _ _ _ _ _ _ _ _ _ _ _ _ ",
"_ _ _ _ _ _ _ _ _ _ _ _ ^ _ U 7 8 4 .   q o                                         o q   . 6 8 7 Z _ ^ _ _ _ _ _ _ _ _ _ _ _ _ ",
"_ _ _ _ _ _ _ _ _ _ _ _ ^ >.n       - _ y                                             y _ -       n >.^ _ _ _ _ _ _ _ _ _ _ _ _ ",
"_ _ _ _ _ _ _ _ _ _ _ _ _ ^ ,.s e g l.t o #                                         @ o t l.g w s ,.^ _ _ _ _ _ _ _ _ _ _ _ _ _ ",
"_ _ _ _ _ _ _ _ _ _ _ _ ^ _ Z p W s :   i $   .                                 .   $ i   : s W p Z _ _ _ _ _ _ _ _ _ _ _ _ _ _ ",
"_ _ _ _ _ _ _ _ _ _ _ _ ^ >.s       + U 6   i = = 1   o                 o   2 = = i   6 U +       s >.^ _ _ _ _ _ _ _ _ _ _ _ _ ",
"_ _ _ _ _ _ _ _ _ _ _ _ _ ^ >.t 7 i l.0   t l.X p 3 = q                 q = 5 p X l.t   0 l.i 7 t >.^ _ _ _ _ _ _ _ _ _ _ _ _ _ ",
"_ _ _ _ _ _ _ _ _ _ _ _ _ _ _ ,.,.J 2   0 y.- o r   a -                 - a   r o - e.0   1 J q.>._ _ _ _ _ _ _ _ _ _ _ _ _ _ _ ",
"_ _ _ _ _ _ _ _ _ _ _ _ ^ _ U o       8 >.X   p 7 i e                     e i 7 p   X >.8       o U _ ^ _ _ _ _ _ _ _ _ _ _ _ _ ",
"_ _ _ _ _ _ _ _ _ _ _ _ _ ^ >.q $ $ q q.A y n l._ 8     - j &     & j -     8 _ k.n y ^ q.e & $ q >.^ _ _ _ _ _ _ _ _ _ _ _ _ _ ",
"_ _ _ _ _ _ _ _ _ _ _ _ _ ^ _ a i W g.V ^ q.v ; X     & ^ l.;     ; l.^ %     X ; J q.^ V g.W i a _ _ _ _ _ _ _ _ _ _ _ _ _ _ _ ",
"_ _ _ _ _ _ _ _ _ _ _ _ _ ^ q.s o @ J q.q.q.^ &       i q.c X     X j q.i   .   % W q.q.w.J @ o s q.^ _ _ _ _ _ _ _ _ _ _ _ _ _ ",
"_ _ _ _ _ _ _ _ _ _ _ _ _ _ u 5 r e ; q r : = - ;   > q.g.<         < w.q.:   ; - = : r w ; e r 5 u _ _ _ _ _ _ _ _ _ _ _ _ _ _ ",
"_ _ _ _ _ _ _ _ _ _ _ ^ _ W 7 o 7 t %     6 a ,.w.t W g.3             3 g.W t f.,.a 6     % t 7 o 7 W _ ^ _ _ _ _ _ _ _ _ _ _ _ ",
"_ _ _ _ _ _ _ _ _ _ _ _ _ _ q.>.; & 8 s i = X p Z q q &                 & q q Z p X = i s 8 & ; >.q._ _ _ _ _ _ _ _ _ _ _ _ _ _ ",
"_ _ _ _ _ _ _ _ _ _ _ _ _ ^ ,.r X 7 g.>.q.s w t c +   5 r             r 3   + c t w s q.>.g.7 X r ,.^ _ _ _ _ _ _ _ _ _ _ _ _ _ ",
"_ _ _ _ _ _ _ _ _ _ _ _ _ ^ _ s >.q.A ^ ^ >.q.>._ ,.^ i X X         X . i ^ ,._ >.q.>.^ ^ A q.>.s _ _ _ _ _ _ _ _ _ _ _ _ _ _ _ ",
"_ _ _ _ _ _ _ _ _ _ _ _ _ _ _ >.^ ^ _ _ _ ^ ^ A ,.q o   8 5         5 8   o e ,.^ ^ ^ _ _ _ ^ ^ >._ _ _ _ _ _ _ _ _ _ _ _ _ _ _ ",
"_ _ _ _ _ _ _ _ _ _ _ _ _ _ _ ^ _ _ _ _ _ _ _ ^ _ g 9 s D o 5     5 o j s 9 g >.^ _ _ _ _ _ _ _ ^ _ _ _ _ _ _ _ _ _ _ _ _ _ _ _ ",
"_ _ _ _ _ _ _ _ _ _ _ _ _ _ _ _ _ _ _ _ _ _ _ _ ^ >.,.:   7 a     a 7   : ,.>.^ _ _ _ _ _ _ _ _ _ _ _ _ _ _ _ _ _ _ _ _ _ _ _ _ ",
"_ _ _ _ _ _ _ _ _ _ _ _ _ _ _ _ _ _ _ _ _ _ _ _ _ ^ _ q 8 t.-     - y.8 q _ ^ _ _ _ _ _ _ _ _ _ _ _ _ _ _ _ _ _ _ _ _ _ _ _ _ _ ",
"_ _ _ _ _ _ _ _ _ _ _ _ _ _ _ _ _ _ _ _ _ _ _ _ _ _ _ q.l.7         7 l.,._ _ _ _ _ _ _ _ _ _ _ _ _ _ _ _ _ _ _ _ _ _ _ _ _ _ _ ",
"_ _ _ _ _ _ _ _ _ _ _ _ _ _ _ _ _ _ _ _ _ _ _ _ _ _ _ ^ _ a .     . a _ A _ _ _ _ _ _ _ _ _ _ _ _ _ _ _ _ _ _ _ _ _ _ _ _ _ _ _ ",
"_ _ _ _ _ _ _ _ _ _ _ _ _ _ _ _ _ _ _ _ _ _ _ _ _ _ _ _ A w.q     q w.A _ _ _ _ _ _ _ _ _ _ _ _ _ _ _ _ _ _ _ _ _ _ _ _ _ _ _ _ ",
"_ _ _ _ _ _ _ _ _ _ _ _ _ _ _ _ _ _ _ _ _ _ _ _ _ _ _ _ _ ^ q.= = f.^ _ _ _ _ _ _ _ _ _ _ _ _ _ _ _ _ _ _ _ _ _ _ _ _ _ _ _ _ _ ",
"_ _ _ _ _ _ _ _ _ _ _ _ _ _ _ _ _ _ _ _ _ _ _ _ _ _ _ _ _ ^ >.s s >.^ _ _ _ _ _ _ _ _ _ _ _ _ _ _ _ _ _ _ _ _ _ _ _ _ _ _ _ _ _ ",
"_ _ _ _ _ _ _ _ _ _ _ _ _ _ _ _ _ _ _ _ _ _ _ _ _ _ _ _ _ _ ^ >.>.^ _ _ _ _ _ _ _ _ _ _ _ _ _ _ _ _ _ _ _ _ _ _ _ _ _ _ _ _ _ _ ",
"_ _ _ _ _ _ _ _ _ _ _ _ _ _ _ _ _ _ _ _ _ _ _ _ _ _ _ _ _ _ _ ^ ^ _ _ _ _ _ _ _ _ _ _ _ _ _ _ _ _ _ _ _ _ _ _ _ _ _ _ _ _ _ _ _ ",
"_ _ _ _ _ _ _ _ _ _ _ _ _ _ _ _ _ _ _ _ _ _ _ _ _ _ _ _ _ _ _ _ _ _ _ _ _ _ _ _ _ _ _ _ _ _ _ _ _ _ _ _ _ _ _ _ _ _ _ _ _ _ _ _ ",
"_ _ _ _ _ _ _ _ _ _ _ _ _ _ _ _ _ _ _ _ _ _ _ _ _ _ _ _ _ _ _ _ _ _ _ _ _ _ _ _ _ _ _ _ _ _ _ _ _ _ _ _ _ _ _ _ _ _ _ _ _ _ _ _ ",
"_ _ _ _ _ _ _ _ _ _ _ _ _ _ _ _ _ _ _ _ _ _ _ _ _ _ _ _ _ _ _ _ _ _ _ _ _ _ _ _ _ _ _ _ _ _ _ _ _ _ _ _ _ _ _ _ _ _ _ _ _ _ _ _ ",
"_ _ _ _ _ _ _ _ _ _ _ _ _ _ _ _ _ _ _ _ _ _ _ _ _ _ _ _ _ _ _ _ _ _ _ _ _ _ _ _ _ _ _ _ _ _ _ _ _ _ _ _ _ _ _ _ _ _ _ _ _ _ _ _ ",
"_ _ _ _ _ _ _ _ _ _ _ _ _ _ _ _ _ _ _ _ _ _ _ _ _ _ _ _ _ _ _ _ _ _ _ _ _ _ _ _ _ _ _ _ _ _ _ _ _ _ _ _ _ _ _ _ _ _ _ _ _ _ _ _ ",
"_ _ _ _ _ _ _ _ _ _ _ _ _ _ _ _ _ _ _ _ _ _ _ _ _ _ _ _ _ _ _ _ _ _ _ _ _ _ _ _ _ _ _ _ _ _ _ _ _ _ _ _ _ _ _ _ _ _ _ _ _ _ _ _ ",
"_ _ _ _ _ _ _ _ _ _ _ _ _ _ _ _ _ _ _ _ _ _ _ _ _ _ _ _ _ _ _ _ _ _ _ _ _ _ _ _ _ _ _ _ _ _ _ _ _ _ _ _ _ _ _ _ _ _ _ _ _ _ _ _ ",
"_ _ _ _ _ _ _ _ _ _ _ _ _ _ _ _ _ _ _ _ _ _ _ _ _ _ _ _ _ _ _ _ _ _ _ _ _ _ _ _ _ _ _ _ _ _ _ _ _ _ _ _ _ _ _ _ _ _ _ _ _ _ _ _ ",
"_ _ _ _ _ _ _ _ _ _ _ _ _ _ _ _ _ _ _ _ _ _ _ _ _ _ _ _ _ _ _ _ _ _ _ _ _ _ _ _ _ _ _ _ _ _ _ _ _ _ _ _ _ _ _ _ _ _ _ _ _ _ _ _ ",
"_ _ _ _ _ _ _ _ _ _ _ _ _ _ _ _ _ _ _ _ _ _ _ _ _ _ _ _ _ _ _ _ _ _ _ _ _ _ _ _ _ _ _ _ _ _ _ _ _ _ _ _ _ _ _ _ _ _ _ _ _ _ _ _ "
};
