/* XPM */
static char *a1vzf_jjecn[] = {
/* columns rows colors chars-per-pixel */
"64 64 102 2 ",
"   c #71737F",
".  c #78777B",
"X  c #7E7A78",
"o  c #867E75",
"O  c #807B78",
"+  c #B3975E",
"@  c #B7985D",
"#  c #BB9B5A",
"$  c #94866E",
"%  c #97886C",
"&  c #9D8A69",
"*  c #8B8172",
"=  c #A38E66",
"-  c #A08C68",
";  c #A69065",
":  c #AC9362",
">  c #C39F56",
",  c #C09E58",
"<  c #D2A74F",
"1  c #D5A94D",
"2  c #DBAC4B",
"3  c #C6A055",
"4  c #CEA551",
"5  c #D0A650",
"6  c #E1AF47",
"7  c #E0AF48",
"8  c #E4B146",
"9  c #E8B344",
"0  c #0B359B",
"q  c #0E389C",
"w  c #133C9E",
"e  c #0E3EB0",
"r  c #2F509F",
"t  c #33529E",
"y  c #39559B",
"u  c #3E5898",
"i  c #1D44A2",
"p  c #1F48A7",
"a  c #1642AC",
"s  c #1B45A9",
"d  c #2047A3",
"f  c #244AA5",
"g  c #294EA5",
"h  c #2A4FA8",
"j  c #2B50A8",
"k  c #3255AB",
"l  c #3659AC",
"z  c #3E60B0",
"x  c #435B96",
"c  c #495E93",
"v  c #56658C",
"b  c #5B678A",
"n  c #5E6988",
"m  c #4F6190",
"M  c #636C86",
"N  c #6E7280",
"B  c #4263B1",
"V  c #4C6BB5",
"C  c #516FB7",
"Z  c #5471B9",
"A  c #5875BA",
"S  c #5C79BC",
"D  c #647FBF",
"F  c #6A84C2",
"G  c #6F88C4",
"H  c #7B92C9",
"J  c #8096CB",
"K  c #869BCD",
"L  c #8A9FCF",
"P  c #8FA3D1",
"I  c #92A5D2",
"U  c #95A7D3",
"Y  c #90A3D1",
"T  c #95A8D4",
"R  c #99ABD5",
"E  c #9AABD5",
"W  c #A9B8DC",
"Q  c #AAB9DC",
"!  c #BCC7E3",
"~  c #BCC8E4",
"^  c #BDC8E4",
"/  c #BDC9E4",
"(  c #BEC9E4",
")  c #C0CBE5",
"_  c #C1CCE6",
"`  c #C4CEE7",
"'  c #C4CFE7",
"]  c #C7D1E8",
"[  c #CAD3E9",
"{  c #CBD4EA",
"}  c #D5DDEE",
"|  c #DCE2F1",
" . c #DFE4F2",
".. c #DFE5F2",
"X. c #E7EBF5",
"o. c #ECF0F7",
"O. c #EEF1F8",
"+. c #F5F7FB",
"@. c #F6F8FB",
"#. c #F7F8FC",
"$. c #F8F9FC",
"%. c white",
/* pixels */
"f f f f f f f f f f f f f f f f f f f f f f f f f f f f f f f f f f f f f f f f f f f f f f f f f f f f f f f f f f f f f f f f ",
"f f f f f f f f f f f f f f f f f f f f f f f f f f f f f f f f f f f f f f f f f f f f f f f f f f f f f f f f f f f f f f f f ",
"f f f f f f f f f f f f f f f f f f f f f f f f f f f f f f f f f f f f f f f f f f f f f f f f f f f f f f f f f f f f f f f f ",
"f f f f f f f f f f f f f f f f f f f f f f f f f f f f f f f f f f f f f f f f f f f f f f f f f f f f f f f f f f f f f f f f ",
"f f f f f f f f f f f f f f f f f f f f f f f f f f f f f f f f f f f f f f f f f f f f f f f f f f f f f f f f f f f f f f f f ",
"f f f f f f f f f f f f f f f f f f f f f f f f f f f f f f f f f f f f f f f f f f f f f f f f f f f f f f f f f f f f f f f f ",
"f f f f f f f f f f f f f f f f f f f f f f f f f f f f f f f f f f f f f f f f f f f f f f f f f f f f f f f f f f f f f f f f ",
"f f f f f f f f f f f f f f f f f f f f f f f f f f f f f f f f f f f f f f f f f f f f f f f f f f f f f f f f f f f f f f f f ",
"f f f f f f f f f f f f f f f f f f f f f f f f f f f f d d f f f f d d f f f f f f f f f f f f f f f f f f f f f f f f f f f f ",
"f f f f f f f f f f f f f f f f f f f f f f f f f f f d B k f f f d k B d f f f f f f f f f f f f f f f f f f f f f f f f f f f ",
"f f f f f f f f f f f f f f f f f f f f f f f f f f d 0 Y C 0 d f 0 C Y 0 d f f f f f f f f f f f f f f f f f f f f f f f f f f ",
"f f f f f f f f f f f f f f f f f f f f f f G g f d V V } T V k k V T } V V d f g G f f f f f f f f f f f f f f f f f f f f f f ",
"f f f f f f f f f f f f f f f f f f f f i i { f i i Z $.%.%.' g g ' %.%.$.Z i i g { i i f f f f f f f f f f f f f f f f f f f f ",
"f f f f f f f f f f f f f f f f f f f d L ] #.[ I g w D %.X.f d d f X.%.D w g I [ #.] L d f f f f f f f f f f f f f f f f f f f ",
"f f f f f f f f f f f f f f f f F h f i B X.%.O.V d w L ..| B d i B | ..L w d V O.%.X.B i f h F f f f f f f f f f f f f f f f f ",
"f f f f f f f f f f f f f f i i ] f w j 0 R %.W 0 g i J g S S i i S S g J i g 0 W %.R 0 j w f ] i i f f f f f f f f f f f f f f ",
"f f f f f f f f f f f f f d K ! @.) Y f g ^ G ^ k d f d d i f f f f i d d f d k ^ G ^ g f P ) +.! K d f f f f f f f f f f f f f ",
"f f f f f f f f f f f f f i V o.%.+.A i k B q z l d f f f f f f f f f f f f d l z q B k i A +.%.o.V i f f f f f f f f f f f f f ",
"f f f f f f f f f f f f f g 0 U %.W 0 g d i g i d f f f f f f s d f f f f f f d i g i d g 0 W %.U 0 g f f f f f f f f f f f f f ",
"f f f f f f f f f f f f f d f ^ H _ k d f f f f f f f f f d s m g d f f f f f f f f f f d k _ H ^ f d f f f f f f f f f f f f f ",
"f f f f f f f f f f f f f d k V 0 B l d f f f f f f f f d g * 2 . s f f f f f f f f f f d l B q V k d f f f f f f f f f f f f f ",
"f f f f f f f f f f f f f f d i g i d f f f f f f f f d y , 2 2 $ a g f f f f f f f f f f d i g i d f f f f f f f f f f f f f f ",
"f f f f f f f f f f f f f f f f f f f f f f f f f f f p y 1 4 < : y s d d f f f f f f f f f f f f f f f f f f f f f f f f f f f ",
"f f f f f f f f f f f f f f f f f f f f f f f f f f f f s   1 4 2 3 = % r d f f f f f f f f f f f f f f f f f f f f f f f f f f ",
"f f f f f f f f f f f f f f f f f f f f f f f f f f f f a N 2 4 4 < 1 8 b a g f f f f f f f f f f f f f f f f f f f f f f f f f ",
"f f f f f f f f f f f f f f f f f f f f f f f f f f f f g - 2 4 5 4 4 1 * g d f f f f f f f f f f f f f f f f f f f f f f f f f ",
"f f f f f f f f f f f f f f f f f f f f f f f f f f d f : 5 5 5 5 5 5 4 2 * s g f f f f f f f f f f f f f f f f f f f f f f f f ",
"f f f f f f f f f f f f f f f f f f f f f f f f f f f = 2 5 5 5 5 5 5 4 2 * e g f f f f f f f f f f f f f f f f f f f f f f f f ",
"f f f f f f f f f f f f f f f f f f f f f f f f g f f + 1 4 5 5 5 5 5 4 1 # v s s f f f f f f f f f f f f f f f f f f f f f f f ",
"f f f f f f f f f f f f f f f f f f f f f f f d a p d * 2 4 5 5 5 5 5 5 4 1 1 $ x s f f f f f f f f f f f f f f f f f f f f f f ",
"f f f f f f f f f f f f f f f f f f f f d s d g N & , < 5 5 5 5 5 5 5 5 5 4 5 1 x d f f f f f f f f f f f f f f f f f f f f f f ",
"f f f f f f f f f f f f f f f f f f f d t M s . 9 1 1 5 5 5 5 5 5 5 5 5 5 4 1 # s s d f f f f f f f f f f f f f f f f f f f f f ",
"f f f f f f f f f f f f f f f f f f f d ; 7 + 3 5 4 4 5 5 5 5 5 5 5 5 5 5 4 < 4 N u t s d f f f f f f f f f f f f f f f f f f f ",
"f f f f f f f f f f f f f f f f f f d t 4 2 1 < 4 5 5 5 5 5 5 5 5 5 5 5 5 5 5 < 2 2 * f y d f f f f f f f f f f f f f f f f f f ",
"f f f f f f f f f f f f f f f f f f f d c ; < 4 5 5 5 5 5 5 5 5 5 5 5 5 5 5 5 5 4 5 4 > , g d f f f f f f f f f f f f f f f f f ",
"f f f f f f f f f f f f f f f f f f f g a X 2 4 5 5 5 5 5 5 5 5 5 5 5 5 5 5 5 5 5 4 4 1 3 t d f f f f f f f f f f f f f f f f f ",
"f f f f f f f f f f f f f f f f f f f f s $ 2 4 5 5 5 5 5 5 5 5 5 5 5 5 5 5 5 5 5 5 4 2 $ s f f f f f f f f f f f f f f f f f f ",
"f f f f f f f f f f f f f f f f f f f f s o 8 4 5 5 5 5 5 5 5 5 5 5 5 5 5 5 5 5 5 5 4 2 N s f f f f f f f f f f f f f f f f f f ",
"f f f f f f f f f f f f f f f f f f f f f f $ 2 4 5 5 5 5 5 5 5 5 5 5 5 5 5 5 5 5 4 1 # f d f f f f f f f f f f f f f f f f f f ",
"f f f f f f f f f f f f f f f f f f f f f s y 4 5 5 5 5 5 5 5 5 5 5 5 5 5 5 5 5 5 4 2 o s f f f f f f f f f f f f f f f f f f f ",
"f f f f f f f f f f f f f f f f f f f f f f d : 2 4 5 5 5 5 5 5 5 5 5 5 5 5 5 5 5 4 5 x s f f f f f f f f f f f f f f f f f f f ",
"f f f f f f f f f f f f f f f f f f f f f f s o 2 4 5 5 5 5 5 5 5 5 5 5 5 5 5 5 4 2 4 t d f f f f f f f f f f f f f f f f f f f ",
"f f f f f f f f f f f f f f f f f f f f f f a M 8 1 4 5 5 5 5 5 5 5 5 5 5 5 5 4 1 $ y d f f f f f f f f f f f f f f f f f f f f ",
"f f f f f f f f f f f f f f f f f f f f f f d y n - 2 4 5 5 5 5 5 5 5 5 5 5 5 4 2 : s d f f f f f f f f f f f f f f f f f f f f ",
"f f f f f f f f f f f f f f f f f f f f f f f d a d * 1 4 5 5 5 5 5 5 4 4 5 4 2 ; 1 o s f f f f f f f f f f f f f f f f f f f f ",
"f f f f f f f f f f f f f f f f f f f f f f f f g d s : 1 4 5 5 5 5 4 2 < 4 1 = y y c d f f f f f f f f f f f f f f f f f f f f ",
"f f f f f f f f f f f f f f f f f f f f f f f f f g a N 2 4 5 5 4 5 2 & # 2 3 t s d s f f f f f f f f f f f f f f f f f f f f f ",
"f f f f f f f f f f f f f f f f f f f f f f f f f f s x 5 5 5 4 1 5 * a v 8 * a g f f f f f f f f f f f f f f f f f f f f f f f ",
"f f f f f f f f f f f f f f f f f f f f f f f f f f d y 4 < 4 2 3 x s d g 3 & s f f f f f f f f f f f f f f f f f f f f f f f f ",
"f f f f f f f f f f f f f f f f f f f f f f f f f f d t , < < N g s f f d y y d f f f f f f f f f f f f f f f f f f f f f f f f ",
"f f f f f f f f f f f f f f f f f f f f f f f f f f g a O 8 @ s p f f f f d d f f f f f f f f f f f f f f f f f f f f f f f f f ",
"f f f f f f f f f f f f f f f f f f f f f f f f f f f s v 2 + g f f f f f f f f f f f f f f f f f f f f f f f f f f f f f f f f ",
"f f f f f f f f f f f f f f f f f f f f f f f f f f f s n 1 5 x s f f f f f f f f f f f f f f f f f f f f f f f f f f f f f f f ",
"f f f f f f f f f f f f f f f f f f f f f f f f f f f s : 8 3 t d f f f f f f f f f f f f f f f f f f f f f f f f f f f f f f f ",
"f f f f f f f f f f f f f f f f f f f f f f f f f f f s X # M s f f f f f f f f f f f f f f f f f f f f f f f f f f f f f f f f ",
"f f f f f f f f f f f f f f f f f f f f f f f f f f f d f d s f f f f f f f f f f f f f f f f f f f f f f f f f f f f f f f f f ",
"f f f f f f f f f f f f f f f f f f f f f f f f f f f f d f f f f f f f f f f f f f f f f f f f f f f f f f f f f f f f f f f f ",
"f f f f f f f f f f f f f f f f f f f f f f f f f f f f f f f f f f f f f f f f f f f f f f f f f f f f f f f f f f f f f f f f ",
"f f f f f f f f f f f f f f f f f f f f f f f f f f f f f f f f f f f f f f f f f f f f f f f f f f f f f f f f f f f f f f f f ",
"f f f f f f f f f f f f f f f f f f f f f f f f f f f f f f f f f f f f f f f f f f f f f f f f f f f f f f f f f f f f f f f f ",
"f f f f f f f f f f f f f f f f f f f f f f f f f f f f f f f f f f f f f f f f f f f f f f f f f f f f f f f f f f f f f f f f ",
"f f f f f f f f f f f f f f f f f f f f f f f f f f f f f f f f f f f f f f f f f f f f f f f f f f f f f f f f f f f f f f f f ",
"f f f f f f f f f f f f f f f f f f f f f f f f f f f f f f f f f f f f f f f f f f f f f f f f f f f f f f f f f f f f f f f f ",
"f f f f f f f f f f f f f f f f f f f f f f f f f f f f f f f f f f f f f f f f f f f f f f f f f f f f f f f f f f f f f f f f "
};
